<svg width="138" height="43" viewBox="0 0 138 43" fill="none" xmlns="http://www.w3.org/2000/svg">
<path d="M55.0336 14.8988C53.9731 13.9521 53.3655 12.5176 53.2452 10.7618H46.8596C46.9112 12.0758 47.129 13.3267 47.5016 14.5086C48.1493 16.5341 49.2786 18.3128 50.7804 19.6555C52.2592 20.9809 54.0305 21.8588 56.0482 22.2834C56.9137 22.4613 57.8079 22.5531 58.7193 22.5531H60.7542V16.1669H58.7308C57.2404 16.1669 55.9622 15.7365 55.0278 14.9046" fill="#031037"/>
<path d="M42.8473 17.5439C35.109 17.5439 25.2211 19.2481 27.7547 41.8838H34.6963C34.4326 38.9461 34.2377 36.5362 34.2205 34.1779C34.2205 27.4532 35.9172 23.5457 42.7441 23.8269L44.1427 23.8785V17.6243C43.6842 17.5726 42.9906 17.5497 42.8416 17.5497" fill="#031037"/>
<path d="M60.7601 34.7747C59.5105 35.4001 57.9743 35.7559 56.9081 35.7559C54.9076 35.7559 53.8587 35.119 53.4574 32.6976C53.1536 30.8959 53.0447 27.2122 53.3886 23.8785H46.7509C46.4299 27.8434 46.4127 30.2877 46.9229 33.7533C47.7368 39.2215 51.027 42.2224 56.5528 42.1822C58.559 42.1708 60.2901 41.7691 62.7319 40.4838L60.7658 34.7747H60.7601Z" fill="#031037"/>
<path d="M13.7856 36.3583C14.7657 33.7935 15.6141 31.3606 16.5026 28.7098C17.7235 25.072 18.996 21.1473 19.9475 17.6185H27.3133C26.0236 21.6694 24.6135 25.7146 23.0543 29.8286C21.4952 33.9427 19.9877 37.9591 18.1935 41.8838H9.12537C7.33122 37.9649 5.82368 33.9427 4.26456 29.8286C2.70543 25.7146 1.2896 21.6694 0.00561523 17.6185H7.37135C8.32287 21.1473 9.5954 25.072 10.8163 28.7098C11.7048 31.3606 12.5589 33.7992 13.5333 36.3583H13.7856Z" fill="#031037"/>
<path d="M61.0122 1.1593H62.4212V10.6569H61.0122V1.1593Z" fill="#031037"/>
<path d="M64.2224 3.81943H65.5386V5.02627C65.906 4.17291 66.7193 3.70874 67.7359 3.70874C69.2804 3.70874 70.2827 4.82275 70.2827 6.44735V10.6534H68.9665V6.70443C68.9665 5.61898 68.328 4.88702 67.3685 4.88702C66.2984 4.88702 65.5386 5.75466 65.5386 6.95079V10.6534H64.2224V3.81943Z" fill="#031037"/>
<path d="M73.8211 1.67358V3.81591H75.84V4.95491H73.8211V8.37192C73.8211 9.10388 74.2135 9.51092 74.8769 9.51092H75.84V10.6499H74.7699C73.3859 10.6499 72.5085 9.80728 72.5085 8.4112V4.95134H71.1138V3.81234H72.5085V1.67358H73.8247H73.8211Z" fill="#031037"/>
<path d="M76.4106 7.19713C76.4106 5.28332 77.602 3.71228 79.703 3.71228C81.8039 3.71228 82.9418 5.21905 82.9418 6.95433C82.9418 7.12929 82.9275 7.34709 82.9132 7.46849H77.6948C77.8018 8.75746 78.6436 9.63938 79.8349 9.63938C80.8373 9.63938 81.49 9.20377 81.6791 8.43254H82.9953C82.7527 9.8429 81.5185 10.7677 79.8385 10.7677C77.7233 10.7677 76.4106 9.10023 76.4106 7.2007V7.19713ZM81.6148 6.50444C81.5328 5.45828 80.8301 4.76916 79.703 4.76916C78.5758 4.76916 77.9409 5.36544 77.7376 6.50444H81.6148Z" fill="#031037"/>
<path d="M85.5992 7.56126V10.6534H84.283V3.81934H85.5992V5.13687C85.9095 4.22638 86.4517 3.81934 87.4148 3.81934H88.2423V4.95834H87.2542C86.0058 4.95834 85.5992 6.07235 85.5992 7.56126Z" fill="#031037"/>
<path d="M89.3267 3.81943H90.6429V5.02627C91.0103 4.17291 91.8235 3.70874 92.8401 3.70874C94.3846 3.70874 95.3869 4.82275 95.3869 6.44735V10.6534H94.0707V6.70443C94.0707 5.61898 93.4322 4.88702 92.4727 4.88702C91.4026 4.88702 90.6429 5.75466 90.6429 6.95079V10.6534H89.3267V3.81943Z" fill="#031037"/>
<path d="M96.7139 8.70036C96.7139 7.39711 97.7697 6.57231 99.3855 6.57231H100.809C101.119 6.57231 101.269 6.39736 101.269 6.16527C101.269 5.33691 100.673 4.7799 99.6174 4.7799C98.6686 4.7799 97.9766 5.35119 97.9373 6.05459H96.7174C96.8244 4.72634 98.0336 3.70874 99.6709 3.70874C101.433 3.70874 102.585 4.72634 102.585 6.24383V10.6534H101.269V9.53944C100.944 10.2857 100.078 10.7606 99.0609 10.7606C97.652 10.7606 96.7174 9.9322 96.7174 8.69679L96.7139 8.70036ZM99.3035 9.71796C100.552 9.71796 101.269 8.90388 101.269 7.65776V7.5078H99.5068C98.6258 7.5078 98.0301 7.95411 98.0301 8.67536C98.0301 9.31449 98.533 9.71796 99.3035 9.71796Z" fill="#031037"/>
<path d="M106.12 1.67358V3.81591H108.139V4.95491H106.12V8.37192C106.12 9.10388 106.512 9.51092 107.176 9.51092H108.139V10.6499H107.069C105.685 10.6499 104.804 9.80728 104.804 8.4112V4.95134H103.409V3.81234H104.804V1.67358H106.12Z" fill="#031037"/>
<path d="M109.184 0.955811H110.647V2.61254H109.184V0.955811ZM109.266 3.81939H110.582V10.657H109.266V3.81939Z" fill="#031037"/>
<path d="M111.856 7.23644C111.856 5.18694 113.332 3.70874 115.38 3.70874C117.427 3.70874 118.89 5.18694 118.89 7.23644C118.89 9.28593 117.427 10.7641 115.38 10.7641C113.332 10.7641 111.856 9.28593 111.856 7.23644ZM115.38 9.61085C116.668 9.61085 117.549 8.63252 117.549 7.23644C117.549 5.84035 116.668 4.86203 115.38 4.86203C114.092 4.86203 113.197 5.84035 113.197 7.23644C113.197 8.63252 114.078 9.61085 115.38 9.61085Z" fill="#031037"/>
<path d="M120.177 3.81943H121.494V5.02627C121.861 4.17291 122.674 3.70874 123.691 3.70874C125.235 3.70874 126.238 4.82275 126.238 6.44735V10.6534H124.922V6.70443C124.922 5.61898 124.283 4.88702 123.324 4.88702C122.253 4.88702 121.494 5.75466 121.494 6.95079V10.6534H120.177V3.81943Z" fill="#031037"/>
<path d="M127.565 8.70036C127.565 7.39711 128.621 6.57231 130.236 6.57231H131.66C131.97 6.57231 132.12 6.39736 132.12 6.16527C132.12 5.33691 131.524 4.7799 130.468 4.7799C129.519 4.7799 128.827 5.35119 128.788 6.05459H127.568C127.675 4.72634 128.884 3.70874 130.522 3.70874C132.284 3.70874 133.436 4.72634 133.436 6.24383V10.6534H132.12V9.53944C131.795 10.2857 130.928 10.7606 129.912 10.7606C128.503 10.7606 127.568 9.9322 127.568 8.69679L127.565 8.70036ZM130.154 9.71796C131.403 9.71796 132.12 8.90388 132.12 7.65776V7.5078H130.358C129.477 7.5078 128.881 7.95411 128.881 8.67536C128.881 9.31449 129.384 9.71796 130.154 9.71796Z" fill="#031037"/>
<path d="M137.567 10.657H136.889C135.722 10.657 135.02 9.95001 135.02 8.78601V0.955811H136.336V8.67532C136.336 9.18948 136.607 9.51797 137.135 9.51797H137.57V10.657H137.567Z" fill="#031037"/>
</svg>
